<svg width="88" height="32" viewBox="0 0 88 32" fill="none" xmlns="http://www.w3.org/2000/svg">
<g clip-path="url(#clip0)">
<path d="M20.1194 31.9999H17.4629V24.8662C17.4629 20.9195 20.6582 17.7324 24.6151 17.7324C28.572 17.7324 31.7673 20.9195 31.7673 24.8662V31.9999H29.0922V24.8662C29.0922 22.4018 27.0859 20.4006 24.6151 20.4006C22.1443 20.4006 20.138 22.4018 20.138 24.8662V31.9999H20.1194Z" fill="white"/>
<path d="M48.115 24.8847V32.0185H45.4398V30.462C44.1952 31.4256 42.6719 32.0185 40.9628 32.0185C37.0058 32.0185 33.8105 28.8315 33.8105 24.8847C33.8105 20.938 37.0058 17.751 40.9628 17.751C44.9197 17.751 48.115 20.938 48.115 24.8847ZM45.4398 24.8847C45.4398 22.4203 43.4335 20.4192 40.9628 20.4192C38.492 20.4192 36.4857 22.4203 36.4857 24.8847C36.4857 27.3491 38.492 29.3503 40.9628 29.3503C43.4335 29.3317 45.4398 27.3306 45.4398 24.8847Z" fill="white"/>
<path d="M52.9076 32H50.1953V23.773C50.1953 20.4562 52.9076 17.751 56.2329 17.751C58.1463 17.751 59.7997 18.6219 60.9143 19.993C62.029 18.6033 63.7195 17.751 65.6329 17.751C68.9583 17.751 71.6334 20.4562 71.6334 23.773V32H68.9583V23.773C68.9583 21.9386 67.4721 20.4192 65.6329 20.4192C63.7566 20.4192 62.2705 21.9386 62.2705 23.773V32H59.5954V23.773C59.5954 21.9386 58.072 20.4192 56.2329 20.4192C54.3938 20.4192 52.9076 21.9386 52.9076 23.773V32Z" fill="white"/>
<path d="M87.9997 24.8847V32.0185H85.3246V30.462C84.0799 31.4256 82.5566 32.0185 80.8475 32.0185C76.8906 32.0185 73.6953 28.8315 73.6953 24.8847C73.6953 20.938 76.8906 17.751 80.8475 17.751C84.8045 17.751 87.9997 20.938 87.9997 24.8847ZM85.3246 24.8847C85.3246 22.4203 83.3183 20.4192 80.8475 20.4192C78.3768 20.4192 76.3704 22.4203 76.3704 24.8847C76.3704 27.3491 78.3768 29.3503 80.8475 29.3503C83.3183 29.3317 85.3246 27.3306 85.3246 24.8847Z" fill="white"/>
<path d="M3.60397 14.0451C3.60397 13.0446 2.80515 12.2478 1.80198 12.2478C0.798818 12.2478 0 13.0446 0 14.0451C0 15.0457 0.798818 15.8425 1.80198 15.8425C2.80515 15.8425 3.60397 15.0272 3.60397 14.0451Z" fill="#9BCB50"/>
<path d="M9.67865 14.0451C9.67865 13.5449 9.77153 13.0446 9.93873 12.5999L9.58576 12.2478H5.87033C5.31302 12.2478 4.88574 13.0446 4.88574 14.0451C4.88574 15.0457 5.33159 15.8425 5.87033 15.8425H9.15849L9.82726 15.1754C9.73438 14.8048 9.67865 14.4343 9.67865 14.0451Z" fill="#9BCB50"/>
<path d="M26.0637 12.2478C25.0605 12.2478 24.2617 13.0446 24.2617 14.0451C24.2617 15.0457 25.0605 15.8425 26.0637 15.8425C27.0669 15.8425 27.8657 15.0457 27.8657 14.0451C27.8657 13.0446 27.0669 12.2478 26.0637 12.2478Z" fill="#A059A3"/>
<path d="M21.9957 12.2478H18.336L17.7044 12.8778C17.8159 13.2484 17.8716 13.6375 17.8716 14.0451C17.8716 14.6937 17.723 15.3051 17.4629 15.8425H21.9957C22.553 15.8425 22.9803 15.0457 22.9803 14.0451C22.9803 13.0446 22.5345 12.2478 21.9957 12.2478Z" fill="#A059A3"/>
<path d="M3.58511 21.4013C2.87918 22.1054 2.87918 23.2356 3.58511 23.9398C4.29104 24.6439 5.42425 24.6439 6.13018 23.9398C6.83611 23.2356 6.83611 22.1054 6.13018 21.4013C5.44283 20.6971 4.29104 20.6971 3.58511 21.4013Z" fill="#6AC9F2"/>
<path d="M10.1058 15.8425H9.17695L6.48326 18.5293C6.09314 18.9184 6.35322 19.8078 7.05915 20.4934C7.76509 21.1975 8.65679 21.4569 9.02833 21.0678L12.2608 17.8252C11.3133 17.4546 10.5517 16.7319 10.1058 15.8425Z" fill="#6AC9F2"/>
<path d="M9.84554 15.157L9.17676 15.824H10.1056C9.99415 15.6202 9.91984 15.3979 9.84554 15.157Z" fill="#6AC9F2"/>
<path d="M24.3362 3.70582C23.6303 3.00171 22.4971 3.00171 21.7912 3.70582C21.0852 4.40993 21.0852 5.54021 21.7912 6.24432C22.4971 6.94843 23.6303 6.94843 24.3362 6.24432C25.0422 5.55874 25.0422 4.40993 24.3362 3.70582Z" fill="#EE3153"/>
<path d="M17.4444 12.2479H18.3361L21.4571 9.13495C21.8472 8.74583 21.5871 7.85643 20.8812 7.17085C20.1752 6.46674 19.2835 6.20733 18.912 6.59644L15.7725 9.72788V10.4876C16.497 10.8767 17.0914 11.4882 17.4444 12.2479Z" fill="#EE3153"/>
<path d="M17.7044 12.8778L18.336 12.2478H17.4443C17.5558 12.4516 17.6301 12.6554 17.7044 12.8778Z" fill="#EE3153"/>
<path d="M6.14874 6.26288C6.85467 5.55877 6.85467 4.42848 6.14874 3.72437C5.44281 3.02026 4.3096 3.02026 3.60367 3.72437C2.89774 4.42848 2.89774 5.55877 3.60367 6.26288C4.29102 6.94846 5.44281 6.94846 6.14874 6.26288Z" fill="#FBEE41"/>
<path d="M12.1679 10.2838V9.70935L9.02833 6.59644C8.63821 6.20733 7.74651 6.46674 7.05915 7.17085C6.35322 7.87496 6.09314 8.76436 6.48326 9.13495L9.60422 12.2479H10.1058C10.5331 11.377 11.2576 10.6729 12.1679 10.2838Z" fill="#FBEE41"/>
<path d="M10.1061 12.2478H9.60449L9.95746 12.5999C9.99461 12.4702 10.0503 12.359 10.1061 12.2478Z" fill="#FBEE41"/>
<path d="M13.97 3.59467C14.9652 3.59467 15.7719 2.78998 15.7719 1.79734C15.7719 0.804695 14.9652 0 13.97 0C12.9747 0 12.168 0.804695 12.168 1.79734C12.168 2.78998 12.9747 3.59467 13.97 3.59467Z" fill="#F99E2F"/>
<path d="M13.7842 9.95018C14.3043 9.95018 14.8059 10.0428 15.2518 10.2281L15.7719 9.7093V5.85522C15.7719 5.29934 14.9731 4.87317 13.97 4.87317C12.9668 4.87317 12.168 5.31787 12.168 5.85522V9.7093L12.5767 10.1169C12.9668 10.0243 13.3569 9.95018 13.7842 9.95018Z" fill="#F99E2F"/>
<path d="M15.7721 10.469V9.70935L15.252 10.2282C15.4377 10.3023 15.6049 10.3764 15.7721 10.469Z" fill="#F99E2F"/>
<path d="M12.5767 10.1355L12.168 9.72791V10.3023C12.298 10.2282 12.4466 10.1726 12.5767 10.1355Z" fill="#F99E2F"/>
<path d="M12.6699 17.9734V32H15.3822V17.8066C14.8992 18.0105 14.3604 18.1216 13.7845 18.1216C13.3944 18.1216 13.0229 18.0661 12.6699 17.9734Z" fill="white"/>
</g>
<defs>
<clipPath id="clip0">
<rect width="88" height="32" fill="white"/>
</clipPath>
</defs>
</svg>
