<svg width="30" height="24" viewBox="0 0 30 24" fill="none" xmlns="http://www.w3.org/2000/svg">
<path fill-rule="evenodd" clip-rule="evenodd" d="M4 0C1.79086 0 0 1.79086 0 4V16C0 18.2091 1.79086 20 4 20H11L15 24L19 20H26C28.2091 20 30 18.2091 30 16V4C30 1.79086 28.2091 0 26 0H4Z" fill="url(#paint0_linear)"/>
<path d="M7.00043 8.54C7.37376 8.46 7.7171 8.42 8.03043 8.42C8.40376 8.42 8.73376 8.475 9.02043 8.585C9.3071 8.695 9.54543 8.84667 9.73543 9.04C9.92876 9.23333 10.0738 9.46167 10.1704 9.725C10.2704 9.98833 10.3204 10.275 10.3204 10.585C10.3204 10.965 10.2538 11.3083 10.1204 11.615C9.99043 11.9217 9.80876 12.185 9.57543 12.405C9.34543 12.6217 9.07376 12.7883 8.76043 12.905C8.4471 13.0217 8.10876 13.08 7.74543 13.08C7.53543 13.08 7.33376 13.0583 7.14043 13.015C6.9471 12.975 6.76543 12.92 6.59543 12.85C6.42876 12.78 6.27376 12.7 6.13043 12.61C5.9871 12.52 5.86043 12.425 5.75043 12.325L6.02543 11.945C6.08543 11.8583 6.16376 11.815 6.26043 11.815C6.3271 11.815 6.4021 11.8417 6.48543 11.895C6.56876 11.945 6.67043 12.0017 6.79043 12.065C6.91043 12.1283 7.05043 12.1867 7.21043 12.24C7.37376 12.29 7.5671 12.315 7.79043 12.315C8.04043 12.315 8.26543 12.275 8.46543 12.195C8.66543 12.115 8.8371 12.0017 8.98043 11.855C9.12376 11.705 9.23376 11.5267 9.31043 11.32C9.3871 11.1133 9.42543 10.8817 9.42543 10.625C9.42543 10.4017 9.3921 10.2 9.32543 10.02C9.2621 9.84 9.16376 9.68667 9.03043 9.56C8.90043 9.43333 8.7371 9.335 8.54043 9.265C8.34376 9.195 8.11376 9.16 7.85043 9.16C7.67043 9.16 7.4821 9.175 7.28543 9.205C7.0921 9.235 6.89376 9.28333 6.69043 9.35L6.13043 9.185L6.70543 5.835H10.1004V6.225C10.1004 6.35167 10.0604 6.45667 9.98043 6.54C9.90376 6.62 9.77043 6.66 9.58043 6.66H7.33043L7.00043 8.54ZM16.4912 9.42C16.4912 10.0467 16.4229 10.59 16.2862 11.05C16.1529 11.5067 15.9695 11.885 15.7362 12.185C15.5029 12.485 15.2262 12.7083 14.9062 12.855C14.5895 13.0017 14.2495 13.075 13.8862 13.075C13.5195 13.075 13.1779 13.0017 12.8612 12.855C12.5479 12.7083 12.2745 12.485 12.0412 12.185C11.8079 11.885 11.6245 11.5067 11.4912 11.05C11.3579 10.59 11.2912 10.0467 11.2912 9.42C11.2912 8.79333 11.3579 8.25 11.4912 7.79C11.6245 7.33 11.8079 6.95 12.0412 6.65C12.2745 6.34667 12.5479 6.12167 12.8612 5.975C13.1779 5.82833 13.5195 5.755 13.8862 5.755C14.2495 5.755 14.5895 5.82833 14.9062 5.975C15.2262 6.12167 15.5029 6.34667 15.7362 6.65C15.9695 6.95 16.1529 7.33 16.2862 7.79C16.4229 8.25 16.4912 8.79333 16.4912 9.42ZM15.5662 9.42C15.5662 8.87333 15.5195 8.415 15.4262 8.045C15.3362 7.67167 15.2129 7.37167 15.0562 7.145C14.9029 6.91833 14.7245 6.75667 14.5212 6.66C14.3179 6.56 14.1062 6.51 13.8862 6.51C13.6662 6.51 13.4545 6.56 13.2512 6.66C13.0479 6.75667 12.8695 6.91833 12.7162 7.145C12.5629 7.37167 12.4395 7.67167 12.3462 8.045C12.2562 8.415 12.2112 8.87333 12.2112 9.42C12.2112 9.96667 12.2562 10.425 12.3462 10.795C12.4395 11.165 12.5629 11.4633 12.7162 11.69C12.8695 11.9167 13.0479 12.08 13.2512 12.18C13.4545 12.2767 13.6662 12.325 13.8862 12.325C14.1062 12.325 14.3179 12.2767 14.5212 12.18C14.7245 12.08 14.9029 11.9167 15.0562 11.69C15.2129 11.4633 15.3362 11.165 15.4262 10.795C15.5195 10.425 15.5662 9.96667 15.5662 9.42ZM20.402 7.565C20.402 7.845 20.3587 8.09667 20.272 8.32C20.1853 8.54 20.0687 8.72667 19.922 8.88C19.7787 9.03 19.6103 9.145 19.417 9.225C19.227 9.305 19.0253 9.345 18.812 9.345C18.5887 9.345 18.3803 9.305 18.187 9.225C17.9937 9.145 17.8253 9.03 17.682 8.88C17.542 8.72667 17.432 8.54 17.352 8.32C17.272 8.09667 17.232 7.845 17.232 7.565C17.232 7.27833 17.272 7.02333 17.352 6.8C17.432 6.57667 17.542 6.38833 17.682 6.235C17.8253 6.08167 17.9937 5.965 18.187 5.885C18.3803 5.805 18.5887 5.765 18.812 5.765C19.0387 5.765 19.2487 5.805 19.442 5.885C19.6353 5.965 19.8037 6.08167 19.947 6.235C20.0903 6.38833 20.202 6.57667 20.282 6.8C20.362 7.02333 20.402 7.27833 20.402 7.565ZM19.712 7.565C19.712 7.345 19.6887 7.15833 19.642 7.005C19.5953 6.85167 19.5303 6.72667 19.447 6.63C19.367 6.53 19.272 6.45833 19.162 6.415C19.052 6.37167 18.9353 6.35 18.812 6.35C18.6887 6.35 18.5737 6.37167 18.467 6.415C18.3603 6.45833 18.267 6.53 18.187 6.63C18.107 6.72667 18.0437 6.85167 17.997 7.005C17.9503 7.15833 17.927 7.345 17.927 7.565C17.927 7.78167 17.9503 7.96667 17.997 8.12C18.0437 8.27 18.107 8.39333 18.187 8.49C18.267 8.58333 18.3603 8.65167 18.467 8.695C18.5737 8.735 18.6887 8.755 18.812 8.755C18.9353 8.755 19.052 8.735 19.162 8.695C19.272 8.65167 19.367 8.58333 19.447 8.49C19.5303 8.39333 19.5953 8.27 19.642 8.12C19.6887 7.96667 19.712 7.78167 19.712 7.565ZM22.937 5.985C22.9703 5.945 23.0087 5.91 23.052 5.88C23.0987 5.85 23.1603 5.835 23.237 5.835H23.882L18.642 12.855C18.612 12.8983 18.5737 12.9333 18.527 12.96C18.4803 12.9867 18.4237 13 18.357 13H17.702L22.937 5.985ZM24.367 11.31C24.367 11.59 24.3237 11.84 24.237 12.06C24.1503 12.28 24.0337 12.4667 23.887 12.62C23.7437 12.77 23.5753 12.885 23.382 12.965C23.192 13.045 22.9903 13.085 22.777 13.085C22.5503 13.085 22.3403 13.045 22.147 12.965C21.957 12.885 21.7903 12.77 21.647 12.62C21.507 12.4667 21.397 12.28 21.317 12.06C21.237 11.84 21.197 11.59 21.197 11.31C21.197 11.0233 21.237 10.7683 21.317 10.545C21.397 10.3183 21.507 10.1283 21.647 9.975C21.7903 9.82167 21.957 9.705 22.147 9.625C22.3403 9.545 22.5503 9.505 22.777 9.505C23.0003 9.505 23.2087 9.545 23.402 9.625C23.5987 9.705 23.767 9.82167 23.907 9.975C24.0503 10.1283 24.162 10.3183 24.242 10.545C24.3253 10.7683 24.367 11.0233 24.367 11.31ZM23.677 11.31C23.677 11.09 23.6537 10.9033 23.607 10.75C23.5603 10.5933 23.4953 10.4667 23.412 10.37C23.332 10.2733 23.237 10.2033 23.127 10.16C23.017 10.1167 22.9003 10.095 22.777 10.095C22.6537 10.095 22.537 10.1167 22.427 10.16C22.3203 10.2033 22.227 10.2733 22.147 10.37C22.067 10.4667 22.0037 10.5933 21.957 10.75C21.9137 10.9033 21.892 11.09 21.892 11.31C21.892 11.5267 21.9137 11.71 21.957 11.86C22.0037 12.01 22.067 12.1333 22.147 12.23C22.227 12.3233 22.3203 12.3917 22.427 12.435C22.537 12.475 22.6537 12.495 22.777 12.495C22.9003 12.495 23.017 12.475 23.127 12.435C23.237 12.3917 23.332 12.3233 23.412 12.23C23.4953 12.1333 23.5603 12.01 23.607 11.86C23.6537 11.71 23.677 11.5267 23.677 11.31Z" fill="white"/>
<defs>
<linearGradient id="paint0_linear" x1="-4.43662" y1="11.1429" x2="58.9433" y2="11.4032" gradientUnits="userSpaceOnUse">
<stop stop-color="#9BCB50"/>
<stop offset="1" stop-color="#5EC662"/>
</linearGradient>
</defs>
</svg>
