<svg width="100" height="100" viewBox="0 0 100 100" fill="none" xmlns="http://www.w3.org/2000/svg">
<rect width="100" height="100" rx="8" fill="#6AC9F2"/>
<path d="M54.7876 37.2816C54.5503 37.1147 54.0846 36.9272 53.3183 36.751C52.5023 36.5635 51.7973 36.3203 51.2155 36.0129L51.2147 36.0125C50.5727 35.6722 50.0572 35.2373 49.7034 34.6938C49.3471 34.1465 49.1758 33.5213 49.1758 32.839C49.1758 31.6926 49.6263 30.7206 50.4969 29.9604C51.0412 29.4851 51.6724 29.1657 52.3788 28.9931V27.5398H54.7415V28.9169C55.6423 29.0614 56.4283 29.4099 57.0765 29.9828C57.9689 30.7658 58.4147 31.794 58.4147 33.0154V33.6107H54.9326V33.0154C54.9326 32.6829 54.8269 32.4397 54.6213 32.2403L54.6168 32.2359C54.4186 32.0395 54.142 31.9188 53.7242 31.9188C53.322 31.9188 53.0473 32.0187 52.852 32.1731C52.6851 32.3094 52.6011 32.477 52.6011 32.7352C52.6011 32.9429 52.6672 33.0586 52.7998 33.1545C52.9918 33.2933 53.4844 33.4904 54.3921 33.7132C55.321 33.9341 56.0899 34.2099 56.6719 34.5557C57.2561 34.8922 57.7202 35.318 58.0286 35.8454C58.3465 36.3782 58.4905 37.0009 58.4905 37.6861C58.4905 38.8716 58.0315 39.8618 57.1281 40.6066L57.1256 40.6087C56.461 41.1506 55.6587 41.4764 54.7415 41.6078V43.016H52.3788V41.524C51.9806 41.4312 51.6017 41.295 51.2436 41.1138C50.499 40.7371 49.9038 40.2099 49.4761 39.5308C49.0515 38.8568 48.8349 38.1204 48.8349 37.3332V36.7379H52.22L52.2499 37.3014C52.2745 37.7651 52.4253 38.059 52.6563 38.2585C52.9029 38.4647 53.2583 38.5958 53.781 38.5958C54.3162 38.5958 54.6253 38.4845 54.7963 38.3511C54.9703 38.2087 55.0462 38.0476 55.0462 37.821C55.0462 37.549 54.9572 37.3987 54.7918 37.2845L54.7876 37.2816Z" fill="white"/>
<path fill-rule="evenodd" clip-rule="evenodd" d="M65.0261 35.6455C65.0261 41.6933 60.604 46.6643 54.9468 47.2361V50.4214C55.1144 50.2313 55.2935 50.0465 55.4846 49.8684C57.5578 47.9366 60.8146 47.0048 65.5477 48.1588L66.3575 48.3562L66.4447 49.1913C66.6456 51.1147 66.2786 53.944 64.2952 55.9263C62.4204 57.8001 59.3989 58.6348 54.9468 57.6729V59.3246H52.5842V57.7197C48.2538 58.6065 45.3018 57.7687 43.4584 55.9263C41.475 53.944 41.108 51.1147 41.3089 49.1913L41.3961 48.3562L42.2059 48.1588C46.9391 47.0048 50.1959 47.9366 52.269 49.8684C52.378 49.9699 52.483 50.0736 52.5842 50.1792V47.2164C47.0135 46.5585 42.685 41.629 42.685 35.6455C42.685 29.2139 47.6862 24.0001 53.8555 24.0001C60.0249 24.0001 65.0261 29.2139 65.0261 35.6455ZM62.6635 35.6455C62.6635 40.8389 58.6452 44.91 53.8555 44.91C49.0659 44.91 45.0476 40.8389 45.0476 35.6455C45.0476 30.4521 49.0659 26.381 53.8555 26.381C58.6452 26.381 62.6635 30.4521 62.6635 35.6455ZM62.6315 54.2358C61.4982 55.3685 59.3307 56.2397 55.2125 55.2942C55.4126 54.0673 55.9758 52.6535 57.0886 51.6166C58.3385 50.4519 60.478 49.5838 64.1304 50.2848C64.1055 51.6414 63.6916 53.1763 62.6315 54.2358ZM52.5411 55.2942C48.423 56.2397 46.2554 55.3685 45.1221 54.2358C44.062 53.1763 43.6481 51.6414 43.6232 50.2848C47.2756 49.5838 49.4151 50.4519 50.6651 51.6166C51.7779 52.6535 52.341 54.0673 52.5411 55.2942Z" fill="white"/>
<path fill-rule="evenodd" clip-rule="evenodd" d="M23.8422 50.8209L35.5278 50.4148C35.9937 50.0369 36.4402 49.7471 36.9001 49.5444C37.788 49.1531 38.6049 49.1385 39.4572 49.2101L39.261 51.5828C38.5727 51.525 38.2126 51.5647 37.8467 51.7259C37.6961 51.7923 37.5296 51.8861 37.3356 52.0219C37.598 52.9297 37.7534 54.0066 37.8448 55.1317C37.9722 56.6996 37.9834 58.4855 37.9264 60.2865C37.8273 63.4183 37.5198 66.6612 37.2274 69.0063C39.4237 70.8287 42.7514 72.7549 46.4699 73.3666C50.5884 74.0442 55.2454 73.1277 59.5341 68.4845C59.7119 67.8339 59.5852 67.3692 59.3361 67.1617C59.1733 67.0261 58.8 66.8325 57.9915 66.8232C57.1804 66.8138 56.016 66.993 54.3897 67.5145L54.373 67.5198L54.3561 67.5247C51.7479 68.2756 49.5373 67.2314 48.6713 66.5332L48.256 66.1984L48.2294 65.6631C48.1761 64.5897 47.7197 63.1039 46.6098 62.1052C45.5655 61.1654 43.7243 60.4636 40.4628 61.321L39.8664 59.0172C43.6924 58.0113 46.4094 58.7328 48.1834 60.3292C49.6677 61.6648 50.332 63.4728 50.53 64.9174C51.1675 65.2539 52.3443 65.6222 53.6913 65.2398C55.4465 64.6784 56.8699 64.4291 58.0185 64.4424C59.1738 64.4557 60.1342 64.7375 60.8413 65.3266C61.5208 65.8926 61.833 66.6055 61.9353 67.312L74.8007 60.6712C74.7594 60.3556 74.6617 60.0475 74.5009 59.8238C74.3858 59.6636 74.2344 59.5379 74.007 59.4616C73.7679 59.3813 73.3739 59.3329 72.7522 59.4582C71.3332 59.7442 69.3058 60.4808 67.2911 61.3219C65.2975 62.1542 63.397 63.0545 62.2635 63.6257L61.2069 61.4961C62.3845 60.9027 64.3359 59.9785 66.3868 59.1222C68.1948 58.3674 70.1454 57.6374 71.725 57.25C72.8402 55.5306 72.5668 54.9027 72.4665 54.7434C72.3749 54.5979 72.1927 54.4349 71.8635 54.278C71.6009 54.1528 71.295 54.0553 70.9711 53.9757C70.9543 53.9803 70.936 53.9854 70.9161 53.991C70.6305 54.072 70.0729 54.248 69.0311 54.623L68.2365 52.3808C69.3007 51.9977 69.9159 51.8012 70.2766 51.699C70.4566 51.648 70.5875 51.6164 70.6876 51.5971C70.7383 51.5874 70.7895 51.5791 70.8412 51.5736C70.8676 51.5708 70.897 51.5684 70.9288 51.5671C70.9449 51.5665 70.9623 51.5661 70.9808 51.5661C70.9901 51.5661 70.9998 51.5663 71.0099 51.5665L71.0254 51.567L71.0334 51.5674L71.0374 51.5676C71.0395 51.5677 71.0415 51.5678 70.9795 52.7566L71.0415 51.5678L71.1352 51.5727L71.227 51.5926C71.714 51.6977 72.3093 51.8566 72.8737 52.1256C73.4352 52.3933 74.0458 52.8077 74.4614 53.4677C75.1104 54.4985 75.0798 55.7311 74.4798 57.1225C74.5727 57.1459 74.664 57.1726 74.7536 57.2026C75.4852 57.4482 76.032 57.8951 76.4144 58.4271C77.1436 59.4418 77.2431 60.705 77.1627 61.5148L77.0987 62.1602L60.8416 70.5516C56.0875 75.4342 50.7967 76.4909 46.0892 75.7165C42.0112 75.0456 38.4152 73.0137 35.9668 71.0412L25.6378 73.043L25.2255 72.7463C23.8349 71.7452 23.0288 70.1511 22.5717 68.4275C22.1116 66.6925 21.9678 64.6901 22.0058 62.6811C22.082 58.6603 22.8924 54.3883 23.6156 51.6718L23.8422 50.8209ZM24.368 62.7265C24.4321 59.3425 25.0565 55.7184 25.6816 53.1393L35.1022 52.8119C35.2747 53.4542 35.4068 54.3006 35.4901 55.326C35.6075 56.7714 35.6204 58.4597 35.565 60.2106C35.467 63.3093 35.1575 66.536 34.8682 68.8296L26.2366 70.5024C25.6437 69.9196 25.176 69.026 24.8542 67.8128C24.4725 66.3736 24.3322 64.6154 24.368 62.7265Z" fill="white"/>
</svg>
