<svg width="100" height="100" viewBox="0 0 100 100" fill="none" xmlns="http://www.w3.org/2000/svg">
<rect width="100" height="100" rx="8" fill="#A059A3"/>
<path fill-rule="evenodd" clip-rule="evenodd" d="M20.2053 35.1072L19.3491 34.9849L18.9682 35.7614C17.7879 38.1674 16.2755 42.1652 15.5392 46.4182C14.8098 50.6313 14.7998 55.3354 16.9049 58.9608L17.3305 59.6937L28.4925 57.5158C32.995 61.3994 42.565 69.5987 45.5125 71.9147C47.1959 73.2373 48.7979 73.6163 50.1801 73.3808C50.9107 73.2564 51.5315 72.9679 52.0271 72.6179C52.7292 73.1453 53.5822 73.2858 54.3498 73.1938C55.2259 73.0887 56.0858 72.6778 56.743 72.053C57.1071 71.7069 57.4214 71.2823 57.6381 70.7931C58.2842 71.1828 59.0272 71.294 59.7293 71.1969C60.688 71.0642 61.5982 70.5499 62.2733 69.8095C62.8057 69.2256 63.213 68.4783 63.3861 67.6181C64.0401 68.0248 64.7971 68.1418 65.5117 68.0429C66.4704 67.9103 67.3806 67.3959 68.0557 66.6556C68.7403 65.9047 69.2182 64.8836 69.257 63.6995C69.2791 63.0226 69.1571 62.3228 68.8778 61.6185L71.9781 60.3419H82.698L82.8954 59.3942C85.0794 48.9112 81.1067 41.9268 78.5936 39.6148L78.1749 39.2296L65.7671 41.0776C65.6081 40.9576 65.4071 40.8106 65.1658 40.6428C64.5102 40.1869 63.5553 39.5766 62.3383 38.9424C59.9071 37.6754 56.4079 36.3017 52.1454 35.8892C49.4198 35.6255 46.8861 36.405 44.7732 37.7278C42.9188 37.5514 40.1361 37.3393 37.8037 37.2771C36.6426 37.2461 35.552 37.251 34.7338 37.3241C34.4513 37.3494 34.164 37.3856 33.901 37.4429C33.8889 37.4389 33.8777 37.4351 33.8676 37.4318C33.7299 37.3862 33.571 37.3421 33.4035 37.2998C33.0664 37.2145 32.6332 37.121 32.1377 37.0226C31.1433 36.8253 29.8423 36.5978 28.4375 36.3661C25.6249 35.9021 22.3568 35.4145 20.2053 35.1072ZM32.3254 39.493C32.1332 39.451 31.9155 39.4059 31.6743 39.3581C30.7177 39.1683 29.4464 38.9457 28.0499 38.7153C25.6158 38.3137 22.8315 37.8934 20.7388 37.5896C19.7069 39.8689 18.502 43.2618 17.8853 46.8244C17.2445 50.5255 17.2736 54.2079 18.5788 57.0243L28.3077 55.126C29.0327 52.427 29.99 48.8221 30.8042 45.6668C31.2691 43.8652 31.686 42.2153 31.9862 40.9659C32.1297 40.369 32.2448 39.8703 32.3254 39.493ZM37.7402 39.6572C39.1249 39.6941 40.6848 39.7862 42.1052 39.892C41.7468 40.2618 41.4128 40.6458 41.1054 41.039C39.894 42.589 39.0388 44.3505 38.7355 46.0704C38.4319 47.7927 38.6724 49.5717 39.8053 50.9661L40.1626 51.4059H40.7101L40.713 51.4065C40.7266 51.4091 40.7693 51.4175 40.8558 51.4416C40.8784 51.4479 40.9253 51.4618 40.9848 51.4794C41.1153 51.518 41.3065 51.5746 41.4349 51.6085C41.9399 51.7422 42.615 51.8666 43.4471 51.7571C45.1034 51.5392 47.0398 50.448 49.4662 47.6336C49.4965 47.6346 49.5352 47.6373 49.5834 47.6428C49.9229 47.6813 50.4559 47.8428 51.1802 48.1759C52.6069 48.8321 54.4685 50.0084 56.439 51.4944C60.3271 54.4264 64.3548 58.3461 66.1308 61.3891L66.0593 61.4427C66.7118 62.3127 66.8958 63.0547 66.8773 63.6216C66.8585 64.1951 66.6301 64.6853 66.2963 65.0514C65.9529 65.428 65.5326 65.6364 65.1854 65.6845C64.863 65.7291 64.6456 65.6405 64.4909 65.4638L64.4648 65.4339L54.9751 55.9442L53.2915 57.6278L60.3242 64.6605C60.9384 65.503 61.113 66.2226 61.0949 66.7755C61.0761 67.349 60.8477 67.8392 60.5139 68.2053C60.1705 68.5819 59.7502 68.7903 59.403 68.8384C59.0806 68.883 58.8632 68.7944 58.7085 68.6177L58.6824 68.5879L57.4277 67.3332C57.2303 66.9639 56.9772 66.5993 56.6689 66.243L56.4913 66.3967L50.244 60.1494L48.5604 61.833L55.4522 68.7248C55.5493 68.9778 55.5758 69.1914 55.5694 69.3618C55.5559 69.7184 55.3925 70.0518 55.1026 70.3273C54.8042 70.611 54.4157 70.7879 54.0663 70.8298C53.7294 70.8702 53.5229 70.7818 53.4073 70.6716L46.3163 63.3187L44.6024 64.9715L50.2969 70.8763C50.1425 70.9457 49.9698 71.0014 49.7802 71.0337C49.1825 71.1355 48.2439 71.0327 46.9835 70.0425C44.1847 67.8434 35.1887 60.1434 30.5086 56.1103C31.2452 53.3723 32.2555 49.572 33.1097 46.2617C33.5756 44.456 33.9964 42.791 34.3013 41.5222C34.4535 40.8887 34.5786 40.3466 34.6663 39.932C34.6818 39.8585 34.6964 39.7878 34.71 39.7205C34.7793 39.7119 34.8577 39.7035 34.9458 39.6956C35.6224 39.6351 36.6015 39.6268 37.7402 39.6572ZM49.3738 47.6377C49.3732 47.638 49.373 47.6381 49.3731 47.6382C49.3736 47.6387 49.3803 47.6381 49.3916 47.6349L49.3844 47.6357C49.381 47.6361 49.3784 47.6366 49.3766 47.637C49.3753 47.6373 49.3744 47.6375 49.3738 47.6377ZM80.7459 57.961H72.5676L67.0665 43.2913L77.3669 41.7571C79.2414 43.8197 82.2343 49.4226 80.7459 57.961ZM63.8065 42.5976C64.0801 42.7879 64.2911 42.945 64.4355 43.0562L70.223 58.4897L67.7625 59.5029C65.6027 56.1925 61.5784 52.388 57.8726 49.5934C55.8351 48.0569 53.8199 46.7693 52.175 46.0128C51.3634 45.6395 50.5617 45.3576 49.8519 45.277C49.2042 45.2035 48.2561 45.2694 47.6738 46.0662C45.4143 48.6906 43.9609 49.288 43.1365 49.3965C42.7202 49.4513 42.3769 49.3949 42.0441 49.3069C41.9181 49.2735 41.8447 49.2512 41.7619 49.2261C41.6922 49.205 41.6158 49.1818 41.4959 49.1483C41.4723 49.1417 41.4468 49.1347 41.4197 49.1275C41.0221 48.4486 40.8915 47.5551 41.0803 46.4838C41.3028 45.2223 41.9588 43.8135 42.9814 42.5053C45.0402 39.8712 48.3558 37.9146 51.9161 38.2591C55.8011 38.6351 59.0039 39.8896 61.2379 41.0538C62.3535 41.6351 63.2219 42.1911 63.8065 42.5976Z" fill="white"/>
</svg>
