<svg width="100" height="100" viewBox="0 0 100 100" fill="none" xmlns="http://www.w3.org/2000/svg">
<rect width="100" height="100" rx="8" fill="#F99E2F"/>
<path d="M49.5077 43.7461C48.8495 43.088 47.7796 43.0846 47.1181 43.7428L41.5629 49.3014L39.3826 47.1178C38.7245 46.4596 37.6546 46.4596 36.9965 47.1178C36.3384 47.7759 36.3384 48.8458 36.9965 49.5039L40.3715 52.8789C40.6989 53.2096 41.1309 53.375 41.5629 53.375C41.9949 53.375 42.4269 53.2096 42.7576 52.8823L49.5077 46.1323C50.1658 45.4741 50.1658 44.4043 49.5077 43.7461Z" fill="white"/>
<path d="M49.5077 57.2461C48.8495 56.588 47.7796 56.5846 47.1181 57.2428L41.5629 62.8014L39.3826 60.6211C38.7245 59.963 37.6546 59.963 36.9965 60.6211C36.3384 61.2793 36.3384 62.3491 36.9965 63.0073L40.3715 66.3822C40.6989 66.7096 41.1309 66.875 41.5629 66.875C41.9949 66.875 42.4269 66.7096 42.7576 66.3822L49.5077 59.6323C50.1658 58.9741 50.1658 57.9043 49.5077 57.2461Z" fill="white"/>
<path d="M61.8125 46.625H55.0625C54.131 46.625 53.375 47.381 53.375 48.3125C53.375 49.244 54.131 50 55.0625 50H61.8125C62.744 50 63.5 49.244 63.5 48.3125C63.5 47.381 62.744 46.625 61.8125 46.625Z" fill="white"/>
<path d="M61.8125 60.125H55.0625C54.131 60.125 53.375 60.881 53.375 61.8125C53.375 62.744 54.131 63.5 55.0625 63.5H61.8125C62.744 63.5 63.5 62.744 63.5 61.8125C63.5 60.881 62.744 60.125 61.8125 60.125Z" fill="white"/>
<path d="M66.875 29.75H60.125V28.0625C60.125 27.131 59.369 26.375 58.4375 26.375H54.7756C54.077 24.4107 52.2005 23 50 23C47.7995 23 45.923 24.4107 45.2244 26.375H41.5625C40.631 26.375 39.875 27.131 39.875 28.0625V29.75H33.125C31.2654 29.75 29.75 31.2654 29.75 33.125V73.625C29.75 75.4846 31.2654 77 33.125 77H66.875C68.7346 77 70.25 75.4846 70.25 73.625V33.125C70.25 31.2654 68.7346 29.75 66.875 29.75ZM43.25 29.75H46.625C47.5565 29.75 48.3125 28.994 48.3125 28.0625C48.3125 27.131 49.0685 26.375 50 26.375C50.9315 26.375 51.6875 27.131 51.6875 28.0625C51.6875 28.994 52.4435 29.75 53.375 29.75H56.75V33.125H43.25V29.75ZM66.875 73.625H33.125V33.125H39.875V34.8125C39.875 35.744 40.631 36.5 41.5625 36.5H58.4375C59.369 36.5 60.125 35.744 60.125 34.8125V33.125H66.875V73.625Z" fill="white"/>
</svg>
