<svg width="100" height="100" viewBox="0 0 100 100" fill="none" xmlns="http://www.w3.org/2000/svg">
<rect width="100" height="100" rx="8" fill="#EE3153"/>
<path fill-rule="evenodd" clip-rule="evenodd" d="M52.0255 21.9227C52.0255 23.5368 50.717 24.8453 49.1029 24.8453C47.4887 24.8453 46.1802 23.5368 46.1802 21.9227C46.1802 20.3085 47.4887 19 49.1029 19C50.717 19 52.0255 20.3085 52.0255 21.9227ZM49.6446 21.9227C49.6446 22.2218 49.402 22.4644 49.1029 22.4644C48.8037 22.4644 48.5612 22.2218 48.5612 21.9227C48.5612 21.6235 48.8037 21.381 49.1029 21.381C49.402 21.381 49.6446 21.6235 49.6446 21.9227Z" fill="white"/>
<path fill-rule="evenodd" clip-rule="evenodd" d="M28.1945 45.304C28.1945 46.9181 26.886 48.2266 25.2718 48.2266C23.6577 48.2266 22.3492 46.9181 22.3492 45.304C22.3492 43.6898 23.6577 42.3813 25.2718 42.3813C26.886 42.3813 28.1945 43.6898 28.1945 45.304ZM25.8135 45.304C25.8135 45.6031 25.571 45.8457 25.2718 45.8457C24.9727 45.8457 24.7301 45.6031 24.7301 45.304C24.7301 45.0048 24.9727 44.7622 25.2718 44.7622C25.571 44.7622 25.8135 45.0048 25.8135 45.304Z" fill="white"/>
<path fill-rule="evenodd" clip-rule="evenodd" d="M73.8331 48.2266C75.4473 48.2266 76.7558 46.9181 76.7558 45.304C76.7558 43.6898 75.4473 42.3813 73.8331 42.3813C72.219 42.3813 70.9105 43.6898 70.9105 45.304C70.9105 46.9181 72.219 48.2266 73.8331 48.2266ZM73.8331 45.8457C74.1323 45.8457 74.3749 45.6031 74.3749 45.304C74.3749 45.0048 74.1323 44.7622 73.8331 44.7622C73.534 44.7622 73.2914 45.0048 73.2914 45.304C73.2914 45.6031 73.534 45.8457 73.8331 45.8457Z" fill="white"/>
<path fill-rule="evenodd" clip-rule="evenodd" d="M69.5613 48.6763V56.7698H78.1045V48.6763H69.5613ZM75.7235 51.0572H71.9423V54.3888H75.7235V51.0572Z" fill="white"/>
<path fill-rule="evenodd" clip-rule="evenodd" d="M21 48.6763V56.7698H29.5432V48.6763H21ZM27.1622 51.0572H23.381V54.3888H27.1622V51.0572Z" fill="white"/>
<path fill-rule="evenodd" clip-rule="evenodd" d="M52.0255 70.0342C52.0255 71.6483 50.717 72.9568 49.1029 72.9568C47.4887 72.9568 46.1802 71.6483 46.1802 70.0342C46.1802 68.42 47.4887 67.1115 49.1029 67.1115C50.717 67.1115 52.0255 68.42 52.0255 70.0342ZM49.6446 70.0342C49.6446 70.3333 49.402 70.5759 49.1029 70.5759C48.8037 70.5759 48.5612 70.3333 48.5612 70.0342C48.5612 69.735 48.8037 69.4925 49.1029 69.4925C49.402 69.4925 49.6446 69.735 49.6446 70.0342Z" fill="white"/>
<path fill-rule="evenodd" clip-rule="evenodd" d="M44.831 73.4065V81.5H53.3742V73.4065H44.831ZM50.9932 75.7874H47.212V79.1191H50.9932V75.7874Z" fill="white"/>
<path fill-rule="evenodd" clip-rule="evenodd" d="M44.831 25.295V33.3885H53.3742V25.295H44.831ZM50.9932 27.6759H47.212V31.0075H50.9932V27.6759Z" fill="white"/>
<path d="M50.4654 52.4509C50.4654 52.1744 50.3271 51.958 50.0506 51.8014C49.7794 51.6397 49.3412 51.4963 48.736 51.3711C46.7224 50.9485 45.7156 50.093 45.7156 48.8045C45.7156 48.0533 46.026 47.4273 46.6467 46.9265C47.0802 46.5761 47.605 46.347 48.2211 46.2392V43.8148H50.6021V46.3743C51.0076 46.5006 51.3637 46.6846 51.6704 46.9265C52.3173 47.4325 52.6407 48.0898 52.6407 48.8984H50.3793C50.3793 48.5749 50.275 48.3089 50.0663 48.1002C49.8576 47.8863 49.5316 47.7794 49.0882 47.7794C48.7073 47.7794 48.4126 47.8655 48.2039 48.0376C47.9953 48.2098 47.8909 48.4289 47.8909 48.6949C47.8909 48.9453 48.0083 49.1488 48.2431 49.3053C48.483 49.4566 48.8847 49.5896 49.4481 49.7043C50.0115 49.8139 50.4862 49.9391 50.8723 50.0799C52.0669 50.5181 52.6642 51.2772 52.6642 52.357C52.6642 53.1291 52.3329 53.7551 51.6704 54.235C51.3574 54.4593 51.0013 54.6306 50.6021 54.749V57.4443H48.2211V54.8758C47.8592 54.8143 47.5222 54.7128 47.2102 54.5715C46.6624 54.3159 46.232 53.969 45.919 53.5308C45.606 53.0874 45.4495 52.61 45.4495 52.0988H47.5936C47.6144 52.5005 47.7631 52.8083 48.0396 53.0222C48.3161 53.236 48.6865 53.343 49.1508 53.343C49.5837 53.343 49.9098 53.2621 50.1289 53.1004C50.3532 52.9335 50.4654 52.717 50.4654 52.4509Z" fill="white"/>
<path fill-rule="evenodd" clip-rule="evenodd" d="M60.1187 50.25C60.1187 56.3341 55.1866 61.2662 49.1025 61.2662C43.0185 61.2662 38.0864 56.3341 38.0864 50.25C38.0864 44.1659 43.0185 39.2338 49.1025 39.2338C55.1866 39.2338 60.1187 44.1659 60.1187 50.25ZM57.1425 50.25C57.1425 54.6904 53.5429 58.29 49.1025 58.29C44.6622 58.29 41.0625 54.6904 41.0625 50.25C41.0625 45.8096 44.6622 42.21 49.1025 42.21C53.5429 42.21 57.1425 45.8096 57.1425 50.25Z" fill="white"/>
<path d="M54.1779 27.333C61.5959 28.968 67.7017 34.1174 70.6542 40.9483L73.3861 39.7675C70.0604 32.073 63.1854 26.2707 54.8185 24.4266L54.1779 27.333Z" fill="white"/>
<path d="M27.7837 40.8943C30.5249 33.8014 36.0623 29.2212 43.6592 27.4173L42.9716 24.5216C34.4966 26.534 28.1294 31.7436 25.0076 39.8215L27.7837 40.8943Z" fill="white"/>
<path d="M71.3081 57.8611C68.6819 65.5249 62.1973 71.3994 54.1779 73.167L54.8185 76.0734C63.8622 74.0801 71.1642 67.462 74.1236 58.8259L71.3081 57.8611Z" fill="white"/>
<path d="M44.0271 73.167C35.7446 71.3414 29.3846 65.8259 26.9172 57.9011L24.0756 58.7859C26.8853 67.81 34.1442 74.0363 43.3865 76.0734L44.0271 73.167Z" fill="white"/>
</svg>
