<svg width="30" height="28" viewBox="0 0 30 28" fill="none" xmlns="http://www.w3.org/2000/svg">
<path d="M28.333 0.666626H1.66634C1.31272 0.666626 0.97358 0.807102 0.723532 1.05715C0.473484 1.3072 0.333008 1.64634 0.333008 1.99996V7.33329C0.335327 8.15855 0.592846 8.96289 1.07026 9.63605C1.54767 10.3092 2.22161 10.8182 2.99967 11.0933V26C2.99967 26.3536 3.14015 26.6927 3.3902 26.9428C3.64025 27.1928 3.97939 27.3333 4.33301 27.3333H25.6663C26.02 27.3333 26.3591 27.1928 26.6091 26.9428C26.8592 26.6927 26.9997 26.3536 26.9997 26V11.0933C27.7777 10.8182 28.4517 10.3092 28.9291 9.63605C29.4065 8.96289 29.664 8.15855 29.6663 7.33329V1.99996C29.6663 1.64634 29.5259 1.3072 29.2758 1.05715C29.0258 0.807102 28.6866 0.666626 28.333 0.666626ZM18.9997 3.33329H21.6663V7.33329C21.6663 7.68691 21.5259 8.02605 21.2758 8.2761C21.0258 8.52615 20.6866 8.66663 20.333 8.66663C19.9794 8.66663 19.6402 8.52615 19.3902 8.2761C19.1402 8.02605 18.9997 7.68691 18.9997 7.33329V3.33329ZM13.6663 3.33329H16.333V7.33329C16.333 7.68691 16.1925 8.02605 15.9425 8.2761C15.6924 8.52615 15.3533 8.66663 14.9997 8.66663C14.6461 8.66663 14.3069 8.52615 14.0569 8.2761C13.8068 8.02605 13.6663 7.68691 13.6663 7.33329V3.33329ZM8.33301 3.33329H10.9997V7.33329C10.9997 7.68691 10.8592 8.02605 10.6091 8.2761C10.3591 8.52615 10.02 8.66663 9.66634 8.66663C9.31272 8.66663 8.97358 8.52615 8.72353 8.2761C8.47348 8.02605 8.33301 7.68691 8.33301 7.33329V3.33329ZM4.33301 8.66663C3.97939 8.66663 3.64025 8.52615 3.3902 8.2761C3.14015 8.02605 2.99967 7.68691 2.99967 7.33329V3.33329H5.66634V7.33329C5.66634 7.68691 5.52586 8.02605 5.27582 8.2761C5.02577 8.52615 4.68663 8.66663 4.33301 8.66663ZM17.6663 24.6666H12.333V19.3333C12.333 18.626 12.614 17.9478 13.1141 17.4477C13.6142 16.9476 14.2924 16.6666 14.9997 16.6666C15.7069 16.6666 16.3852 16.9476 16.8853 17.4477C17.3854 17.9478 17.6663 18.626 17.6663 19.3333V24.6666ZM24.333 24.6666H20.333V19.3333C20.333 17.9188 19.7711 16.5623 18.7709 15.5621C17.7707 14.5619 16.4142 14 14.9997 14C13.5852 14 12.2286 14.5619 11.2284 15.5621C10.2282 16.5623 9.66634 17.9188 9.66634 19.3333V24.6666H5.66634V11.0933C6.15643 10.9114 6.60853 10.6401 6.99967 10.2933C7.73304 10.9492 8.68243 11.3119 9.66634 11.3119C10.6503 11.3119 11.5996 10.9492 12.333 10.2933C13.0664 10.9492 14.0158 11.3119 14.9997 11.3119C15.9836 11.3119 16.933 10.9492 17.6663 10.2933C18.3997 10.9492 19.3491 11.3119 20.333 11.3119C21.3169 11.3119 22.2663 10.9492 22.9997 10.2933C23.3908 10.6401 23.8429 10.9114 24.333 11.0933V24.6666ZM26.9997 7.33329C26.9997 7.68691 26.8592 8.02605 26.6091 8.2761C26.3591 8.52615 26.02 8.66663 25.6663 8.66663C25.3127 8.66663 24.9736 8.52615 24.7235 8.2761C24.4735 8.02605 24.333 7.68691 24.333 7.33329V3.33329H26.9997V7.33329Z" fill="#EE3153"/>
</svg>
