<svg width="22" height="28" viewBox="0 0 22 28" fill="none" xmlns="http://www.w3.org/2000/svg">
<path d="M14.9071 12.2288C16.3059 11.0339 17.2013 9.21344 17.2013 7.17711C17.2013 3.58722 14.4193 0.666691 10.9997 0.666691C7.58017 0.666691 4.79819 3.58722 4.79819 7.17711C4.79819 9.21344 5.69354 11.0339 7.09238 12.2288C3.27086 12.8939 0.333073 16.6813 0.333073 21.2396V26.5521C0.333073 26.9836 0.666213 27.3334 1.07726 27.3334H20.9222C21.3333 27.3334 21.6664 26.9836 21.6664 26.5521V21.2396C21.6664 16.6813 18.7286 12.8939 14.9071 12.2288ZM11.7439 13.6875V15.25H10.2556V13.6875H11.7439ZM10.1214 16.8125H11.878L12.6643 20.9391L10.9997 22.4068L9.33521 20.9391L10.1214 16.8125ZM6.28656 7.17711C6.28656 4.44884 8.4009 2.22919 10.9997 2.22919C13.5986 2.22919 15.7129 4.44884 15.7129 7.17711C15.7129 9.90538 13.5986 12.125 10.9997 12.125C8.4009 12.125 6.28656 9.90538 6.28656 7.17711ZM20.178 25.7709H1.82145V21.2396C1.82145 17.0754 4.72474 13.6875 8.29354 13.6875H8.76718V15.954L7.78947 21.0864C7.73617 21.3662 7.8323 21.6542 8.04044 21.8378L10.5211 24.0253C10.6594 24.1473 10.8296 24.2084 10.9997 24.2084C11.1699 24.2084 11.34 24.1473 11.4784 24.0253L13.959 21.8378C14.1672 21.6542 14.2635 21.3662 14.2102 21.0864L13.2323 15.954V13.6875H13.7059C17.2747 13.6875 20.178 17.0754 20.178 21.2396V25.7709Z" fill="#F99E2F"/>
<path fill-rule="evenodd" clip-rule="evenodd" d="M14.9071 12.2288C15.0175 12.248 15.1272 12.2698 15.2361 12.2942C18.8959 13.1134 21.6664 16.813 21.6664 21.2396V26.5521C21.6664 26.9836 21.3333 27.3334 20.9222 27.3334H1.07726C0.666213 27.3334 0.333073 26.9836 0.333073 26.5521V21.2396C0.333073 16.813 3.10356 13.1134 6.7634 12.2942C6.87229 12.2698 6.98197 12.248 7.09238 12.2288C7.00749 12.1563 6.92445 12.0815 6.84335 12.0044C5.58816 10.8122 4.79819 9.08987 4.79819 7.17711C4.79819 3.58722 7.58017 0.666691 10.9997 0.666691C14.4193 0.666691 17.2013 3.58722 17.2013 7.17711C17.2013 9.08987 16.4113 10.8122 15.1561 12.0044C15.075 12.0815 14.992 12.1563 14.9071 12.2288ZM6.53336 12.0745C5.29964 10.8388 4.53152 9.09927 4.53152 7.17711C4.53152 3.45231 7.42082 0.400024 10.9997 0.400024C14.5787 0.400024 17.468 3.45231 17.468 7.17711C17.468 9.09927 16.6998 10.8388 15.4661 12.0745C19.181 13 21.9331 16.7791 21.9331 21.2396V26.5521C21.9331 27.1185 21.4926 27.6 20.9222 27.6H1.07726C0.506871 27.6 0.0664062 27.1185 0.0664062 26.5521V21.2396C0.0664062 16.7791 2.81853 13 6.53336 12.0745ZM11.4773 14.9834V13.9542H10.5222V14.9834H11.4773ZM10.3421 17.0792L9.62562 20.8397L10.9997 22.0513L12.3739 20.8397L11.6574 17.0792H10.3421ZM11.878 16.8125H10.1214L9.33521 20.9391L10.9997 22.4068L12.6643 20.9391L11.878 16.8125ZM10.9997 2.49586C8.56024 2.49586 6.55323 4.58375 6.55323 7.17711C6.55323 9.77046 8.56024 11.8584 10.9997 11.8584C13.4392 11.8584 15.4463 9.77046 15.4463 7.17711C15.4463 4.58375 13.4392 2.49586 10.9997 2.49586ZM2.08811 25.5042V21.2396C2.08811 17.1826 4.90914 13.9542 8.29354 13.9542H8.50051V15.9288L7.52751 21.0365C7.45717 21.4057 7.5829 21.7899 7.86406 22.0378C7.86406 22.0378 7.86407 22.0378 7.86406 22.0378L10.3446 24.2252C10.5322 24.3907 10.7652 24.475 10.9997 24.475C11.2343 24.475 11.4673 24.3907 11.6548 24.2252L14.1354 22.0378C14.4165 21.79 14.5425 21.4059 14.4722 21.0365L13.499 15.9288V13.9542H13.7059C17.0903 13.9542 19.9114 17.1826 19.9114 21.2396V25.5042H2.08811ZM13.2323 15.954V13.6875H13.7059C17.2747 13.6875 20.178 17.0754 20.178 21.2396V25.7709H1.82145V21.2396C1.82145 17.0754 4.72474 13.6875 8.29354 13.6875H8.76718V15.954L7.78947 21.0864C7.73617 21.3662 7.8323 21.6542 8.04044 21.8378L10.5211 24.0253C10.6594 24.1473 10.8296 24.2084 10.9997 24.2084C11.1699 24.2084 11.34 24.1473 11.4784 24.0253L13.959 21.8378C14.1672 21.6542 14.2635 21.3662 14.2102 21.0864L13.2323 15.954ZM11.7439 13.6875H10.2556V15.25H11.7439V13.6875ZM10.9997 2.22919C8.4009 2.22919 6.28656 4.44884 6.28656 7.17711C6.28656 9.90538 8.4009 12.125 10.9997 12.125C13.5986 12.125 15.7129 9.90538 15.7129 7.17711C15.7129 4.44884 13.5986 2.22919 10.9997 2.22919Z" fill="#F99E2F"/>
</svg>
