<svg width="30" height="24" viewBox="0 0 30 24" fill="none" xmlns="http://www.w3.org/2000/svg">
<path d="M15.3997 12.2933C16.1111 11.6775 16.6817 10.9158 17.0728 10.06C17.4639 9.20417 17.6664 8.27424 17.6663 7.33329C17.6663 5.56518 16.964 3.86949 15.7137 2.61925C14.4635 1.36901 12.7678 0.666626 10.9997 0.666626C9.23156 0.666626 7.53587 1.36901 6.28563 2.61925C5.03539 3.86949 4.33301 5.56518 4.33301 7.33329C4.333 8.27424 4.53541 9.20417 4.92651 10.06C5.31761 10.9158 5.88824 11.6775 6.59967 12.2933C4.73319 13.1385 3.14963 14.5033 2.03831 16.2247C0.927001 17.946 0.33497 19.951 0.333008 22C0.333008 22.3536 0.473484 22.6927 0.723532 22.9428C0.97358 23.1928 1.31272 23.3333 1.66634 23.3333C2.01996 23.3333 2.3591 23.1928 2.60915 22.9428C2.8592 22.6927 2.99967 22.3536 2.99967 22C2.99967 19.8782 3.84253 17.8434 5.34282 16.3431C6.84311 14.8428 8.87794 14 10.9997 14C13.1214 14 15.1562 14.8428 16.6565 16.3431C18.1568 17.8434 18.9997 19.8782 18.9997 22C18.9997 22.3536 19.1402 22.6927 19.3902 22.9428C19.6402 23.1928 19.9794 23.3333 20.333 23.3333C20.6866 23.3333 21.0258 23.1928 21.2758 22.9428C21.5259 22.6927 21.6663 22.3536 21.6663 22C21.6644 19.951 21.0723 17.946 19.961 16.2247C18.8497 14.5033 17.2662 13.1385 15.3997 12.2933ZM10.9997 11.3333C10.2085 11.3333 9.43519 11.0987 8.77739 10.6592C8.1196 10.2196 7.60691 9.59493 7.30416 8.86403C7.00141 8.13312 6.92219 7.32886 7.07653 6.55293C7.23087 5.77701 7.61184 5.06428 8.17125 4.50487C8.73066 3.94546 9.44339 3.56449 10.2193 3.41015C10.9952 3.25581 11.7995 3.33502 12.5304 3.63778C13.2613 3.94053 13.886 4.45322 14.3256 5.11101C14.7651 5.76881 14.9997 6.54217 14.9997 7.33329C14.9997 8.39416 14.5782 9.41158 13.8281 10.1617C13.078 10.9119 12.0605 11.3333 10.9997 11.3333ZM23.9863 11.76C24.8396 10.7991 25.397 9.61203 25.5914 8.34175C25.7858 7.07146 25.6089 5.77206 25.082 4.59996C24.5551 3.42786 23.7007 2.43302 22.6216 1.73519C21.5425 1.03736 20.2847 0.666283 18.9997 0.666626C18.6461 0.666626 18.3069 0.807102 18.0569 1.05715C17.8068 1.3072 17.6663 1.64634 17.6663 1.99996C17.6663 2.35358 17.8068 2.69272 18.0569 2.94277C18.3069 3.19282 18.6461 3.33329 18.9997 3.33329C20.0605 3.33329 21.078 3.75472 21.8281 4.50487C22.5782 5.25501 22.9997 6.27243 22.9997 7.33329C22.9978 8.03361 22.8121 8.72116 22.4611 9.32719C22.1101 9.93321 21.6062 10.4365 20.9997 10.7866C20.802 10.9007 20.6369 11.0635 20.5202 11.2596C20.4034 11.4557 20.339 11.6785 20.333 11.9066C20.3274 12.133 20.3796 12.357 20.4846 12.5576C20.5895 12.7583 20.7439 12.9288 20.933 13.0533L21.453 13.4L21.6263 13.4933C23.2335 14.2556 24.5894 15.4613 25.5343 16.9684C26.4792 18.4755 26.9737 20.2212 26.9597 22C26.9597 22.3536 27.1001 22.6927 27.3502 22.9428C27.6002 23.1928 27.9394 23.3333 28.293 23.3333C28.6466 23.3333 28.9858 23.1928 29.2358 22.9428C29.4859 22.6927 29.6263 22.3536 29.6263 22C29.6372 19.9539 29.1248 17.939 28.1376 16.1467C27.1505 14.3545 25.7215 12.8444 23.9863 11.76Z" fill="#9BCB50"/>
</svg>
